<svg id="Layer_1" data-name="Layer 1" xmlns="http://www.w3.org/2000/svg" viewBox="0 0 500 500"><defs><style>.cls-1{fill:#ddd;}.cls-2{fill:#d82f23;}.cls-3{fill:#444;}.cls-4{fill:#b7b7b7;}.cls-5{fill:#2d2d2d;}.cls-6{fill:#54c3ef;}.cls-7{fill:none;stroke:#000;stroke-linecap:round;stroke-linejoin:round;stroke-width:15px;}</style></defs><title>hospital</title><path class="cls-1" d="M316.54,89.41v1.64a7.9,7.9,0,0,1-7.9,7.9H275v33.6a7.9,7.9,0,0,1-7.9,7.9H232.86a7.9,7.9,0,0,1-7.9-7.9V99h-33.6a7.9,7.9,0,0,1-7.9-7.9V89.41H73.92V492H426.08V89.41Z"/><path class="cls-2" d="M308.64,48.88H275V15.27a7.9,7.9,0,0,0-7.9-7.9H232.86a7.9,7.9,0,0,0-7.9,7.9V48.88h-33.6a7.89,7.89,0,0,0-7.9,7.89V91.05a7.9,7.9,0,0,0,7.9,7.9H225v33.6a7.9,7.9,0,0,0,7.9,7.9h34.28a7.9,7.9,0,0,0,7.9-7.9V99h33.6a7.9,7.9,0,0,0,7.9-7.9V56.77A7.89,7.89,0,0,0,308.64,48.88Z"/><path class="cls-3" d="M183.46,58.41H71.11a15.5,15.5,0,1,0,0,31H183.46Z"/><path class="cls-3" d="M428.89,58.41H316.54v31H428.89a15.5,15.5,0,0,0,0-31Z"/><rect class="cls-4" x="390.08" y="89.41" width="36" height="402.59"/><path class="cls-5" d="M428.89,58.41h-36a15.5,15.5,0,0,1,0,31h36a15.5,15.5,0,0,0,0-31Z"/><rect class="cls-3" x="146.98" y="345.99" width="206.04" height="31.01" rx="15.5" ry="15.5"/><rect class="cls-6" x="143.47" y="177.79" width="44.63" height="44.63" rx="9.55" ry="9.55"/><rect class="cls-6" x="143.47" y="265.03" width="44.63" height="44.63" rx="9.55" ry="9.55"/><rect class="cls-6" x="227.08" y="177.79" width="44.63" height="44.63" rx="9.55" ry="9.55"/><rect class="cls-6" x="227.08" y="265.03" width="44.63" height="44.63" rx="9.55" ry="9.55"/><rect class="cls-6" x="311.9" y="177.79" width="44.63" height="44.63" rx="9.55" ry="9.55"/><rect class="cls-6" x="311.9" y="265.03" width="44.63" height="44.63" rx="9.55" ry="9.55"/><path class="cls-7" d="M308.64,48.88H275V15.27a7.9,7.9,0,0,0-7.9-7.9H232.86a7.9,7.9,0,0,0-7.9,7.9V48.88h-33.6a7.89,7.89,0,0,0-7.9,7.89V91.05a7.9,7.9,0,0,0,7.9,7.9H225v33.6a7.9,7.9,0,0,0,7.9,7.9h34.28a7.9,7.9,0,0,0,7.9-7.9V99h33.6a7.9,7.9,0,0,0,7.9-7.9V56.77A7.89,7.89,0,0,0,308.64,48.88Z"/><path class="cls-7" d="M183.46,58.41H71.11a15.5,15.5,0,1,0,0,31H183.46Z"/><path class="cls-7" d="M428.89,58.41H316.54v31H428.89a15.5,15.5,0,0,0,0-31Z"/><path class="cls-7" d="M316.54,89.41v1.64a7.9,7.9,0,0,1-7.9,7.9H275v33.6a7.9,7.9,0,0,1-7.9,7.9H232.86a7.9,7.9,0,0,1-7.9-7.9V99h-33.6a7.9,7.9,0,0,1-7.9-7.9V89.41H73.92V492H426.08V89.41Z"/><polygon class="cls-6" points="250 377 164.96 377 164.96 492 250 492 335.04 492 335.04 377 250 377"/><rect class="cls-7" x="164.96" y="377" width="85.04" height="115.01"/><rect class="cls-7" x="250" y="377" width="85.04" height="115.01"/><rect class="cls-7" x="146.98" y="345.99" width="206.04" height="31.01" rx="15.5" ry="15.5"/><line class="cls-7" x1="228.62" y1="432.05" x2="228.62" y2="439.5"/><line class="cls-7" x1="271.38" y1="432.05" x2="271.38" y2="439.5"/><rect class="cls-7" x="143.47" y="177.79" width="44.63" height="44.63" rx="9.55" ry="9.55"/><rect class="cls-7" x="143.47" y="265.03" width="44.63" height="44.63" rx="9.55" ry="9.55"/><rect class="cls-7" x="227.08" y="177.79" width="44.63" height="44.63" rx="9.55" ry="9.55"/><rect class="cls-7" x="227.08" y="265.03" width="44.63" height="44.63" rx="9.55" ry="9.55"/><rect class="cls-7" x="311.9" y="177.79" width="44.63" height="44.63" rx="9.55" ry="9.55"/><rect class="cls-7" x="311.9" y="265.03" width="44.63" height="44.63" rx="9.55" ry="9.55"/></svg>