<svg id="PLANT" xmlns="http://www.w3.org/2000/svg" viewBox="0 0 1600 1400"><defs><style>.cls-1{fill:#88c0c2;}.cls-2{fill:#262424;}.cls-3{fill:#fff;}.cls-4{fill:#de9244;}</style></defs><title>Product Strategy</title><path class="cls-1" d="M1066.67,1306.42s-54-114.42-18-211.42,86.14-27,82.07,50c0,0,50.93-224.54,168.93-199.77s-54,307.6-113,361.19h-120Z"/><path class="cls-2" d="M1113.17,1308.34a2,2,0,0,1-1.89-1.35c-24.14-70.32-29.55-180.91-29.61-182a2,2,0,0,1,1.9-2.09,2,2,0,0,1,2.09,1.9c0.05,1.1,5.44,111.14,29.39,180.91A2,2,0,0,1,1113.17,1308.34Z"/><path class="cls-2" d="M1088.49,1184a2,2,0,0,1-1.39-.56c-12.24-11.77-25.37-34.53-25.92-35.5a2,2,0,0,1,3.47-2c0.13,0.23,13.39,23.24,25.22,34.6A2,2,0,0,1,1088.49,1184Z"/><path class="cls-2" d="M1094.15,1226.32a2,2,0,0,1-1.71-3l23.37-38.61a2,2,0,0,1,3.42,2.07l-23.37,38.61A2,2,0,0,1,1094.15,1226.32Z"/><path class="cls-2" d="M1104.56,1278.78a2,2,0,0,1-1.39-.56c-10.5-10.12-32.94-32.32-33.16-32.54a2,2,0,1,1,2.81-2.84c0.22,0.22,22.65,22.41,33.12,32.51A2,2,0,0,1,1104.56,1278.78Z"/><path class="cls-2" d="M1141,1308.42a2,2,0,0,1-1.91-2.59c0.6-2,61-197.7,140.95-310.65a2,2,0,1,1,3.27,2.31C1203.74,1109.92,1143.52,1305,1142.92,1307A2,2,0,0,1,1141,1308.42Z"/><path class="cls-2" d="M1244.79,1058.06A2,2,0,0,1,1243,1057c-7.4-14-16.87-47.54-17.27-49a2,2,0,0,1,3.85-1.08c0.1,0.34,9.76,34.58,17,48.17A2,2,0,0,1,1244.79,1058.06Z"/><path class="cls-2" d="M1227.67,1090.82a2,2,0,0,1-.6-3.91c0.32-.1,32.65-10.39,51.37-17.78a2,2,0,1,1,1.47,3.72c-18.85,7.44-51.3,17.77-51.63,17.87A2,2,0,0,1,1227.67,1090.82Z"/><path class="cls-2" d="M1195.78,1160.33a2,2,0,0,1-1.8-1.13c-10.36-21.58-18.65-51.87-18.73-52.17a2,2,0,0,1,3.86-1.05c0.08,0.3,8.28,30.24,18.48,51.49A2,2,0,0,1,1195.78,1160.33Z"/><path class="cls-2" d="M1167.82,1230.68a2,2,0,0,1-.74-3.86c0.39-.16,39.58-15.77,59.83-24.17a2,2,0,1,1,1.53,3.7c-20.28,8.41-59.49,24-59.88,24.19A2,2,0,0,1,1167.82,1230.68Z"/><path class="cls-2" d="M1330.67,1308.42h-352a2,2,0,1,1,0-4h352A2,2,0,0,1,1330.67,1308.42Z"/><polygon class="cls-3" points="706.66 1092.97 698.88 1176.02 661.75 1177.5 666.84 1086.77 706.66 1092.97"/><path class="cls-2" d="M661.75,1179.5a2,2,0,0,1-2-2.11l5.09-90.73a2,2,0,0,1,2.3-1.86L707,1091a2,2,0,0,1,1.68,2.16l-7.79,83.06A2,2,0,0,1,699,1178l-37.13,1.48h-0.08Zm7-90.42-4.84,86.33,33.18-1.32,7.45-79.44Z"/><path class="cls-1" d="M775.88,945.23C764.23,1018.39,741,1133,741,1133l-83-6,13-206L508,723s-36-56-20-124,85-76,128-2c0,0,110.21,185.51,151.1,260.32,8.52,15.61,14,26.4,14.9,29.68C783.45,892.5,780.62,915.42,775.88,945.23Z"/><path class="cls-3" d="M775.88,945.23a44.75,44.75,0,0,1-8.78-87.91c8.52,15.61,14,26.4,14.9,29.68C783.45,892.5,780.62,915.42,775.88,945.23Z"/><path class="cls-2" d="M688.11,1107.47H687.9a2,2,0,0,1-1.78-2.2L705.6,919.58,539.92,700.2a2,2,0,1,1,3.19-2.41l166.15,220a2,2,0,0,1,.39,1.41L690.1,1105.68A2,2,0,0,1,688.11,1107.47Z"/><path class="cls-2" d="M526.94,708.63a2,2,0,0,1-.85-3.81c7.49-3.52,16.16-8.09,17.93-9.72,0-6.39,0-61.81,0-62.39a2,2,0,0,1,2-2h0a2,2,0,0,1,2,2c0,2.49,0,61,0,63,0,1.22,0,3.26-20.23,12.76A2,2,0,0,1,526.94,708.63Zm17.3-13.76h0Z"/><path class="cls-2" d="M735.34,1111.33h-0.17l-69.33-5.67a2,2,0,1,1,.33-4l69.33,5.67A2,2,0,0,1,735.34,1111.33Z"/><path class="cls-1" d="M829.52,1291.93v14.49h-179s-0.58-7.56-1.14-20.27c-1.12-25-2.4-67,.92-113.53l57.14-9.16s49,51,92.68,90.75c4.53,4.12,9.3,8.14,14.32,11.94C824.06,1273.46,829.52,1282.52,829.52,1291.93Z"/><path class="cls-2" d="M745,1254.62a2,2,0,0,1-1.44-.61c-38.77-40.19-56.21-73.55-56.38-73.88a2,2,0,0,1,3.55-1.84c0.17,0.33,17.38,33.21,55.71,72.94A2,2,0,0,1,745,1254.62Z"/><ellipse class="cls-3" cx="678.84" cy="1240.1" rx="15.9" ry="17.69"/><path class="cls-2" d="M678.84,1259.8c-9.87,0-17.9-8.83-17.9-19.7s8-19.69,17.9-19.69,17.9,8.83,17.9,19.69S688.7,1259.8,678.84,1259.8Zm0-35.39c-7.66,0-13.9,7-13.9,15.69s6.23,15.7,13.9,15.7,13.9-7,13.9-15.7S686.5,1224.41,678.84,1224.41Z"/><path class="cls-3" d="M829.52,1291.93v14.49h-179s-0.58-7.56-1.14-20.27h94.51s6-42.1,56.23-31.94c4.53,4.12,9.3,8.14,14.32,11.94C824.06,1273.46,829.52,1282.52,829.52,1291.93Z"/><path class="cls-2" d="M829.52,1308.42h-179a2,2,0,0,1-2-1.85c0-.08-0.59-7.74-1.14-20.34a2,2,0,0,1,2-2.09h92.86c1-4.62,4.86-17.45,16.83-25.9,10.52-7.42,24.47-9.44,41.45-6a2,2,0,0,1,.95.48c4.67,4.25,9.44,8.23,14.19,11.83,10.25,7.78,15.89,17.5,15.89,27.38v14.49A2,2,0,0,1,829.52,1308.42Zm-177.17-4H827.52v-12.49c0-8.6-5.08-17.19-14.31-24.19-4.7-3.56-9.42-7.49-14-11.68-15.59-3.06-28.29-1.23-37.77,5.43-13.11,9.21-15.52,24.79-15.55,24.95a2,2,0,0,1-2,1.71H651.45C651.81,1296,652.17,1301.68,652.36,1304.42Z"/><polygon class="cls-3" points="390.99 1103.2 369 1183.67 330.35 1178 351.01 1089.51 390.99 1103.2"/><path class="cls-2" d="M369,1185.67l-0.29,0L330.06,1180a2,2,0,0,1-1.66-2.43l20.66-88.5a2,2,0,0,1,2.6-1.44l40,13.69a2,2,0,0,1,1.28,2.42l-22,80.47A2,2,0,0,1,369,1185.67Zm-36.21-9.33,34.75,5.09,21-77-36.11-12.37Z"/><path class="cls-1" d="M502.37,1291.93v14.49h-179s-0.58-7.56-1.14-20.27c-1.12-25-2.4-67,.92-113.53l57.14-9.16s49,51,92.68,90.75c4.53,4.12,9.3,8.14,14.32,11.94C496.91,1273.46,502.37,1282.52,502.37,1291.93Z"/><path class="cls-2" d="M417.82,1254.62a2,2,0,0,1-1.44-.61c-38.77-40.19-56.21-73.55-56.38-73.88a2,2,0,0,1,3.55-1.84c0.17,0.33,17.38,33.21,55.71,72.94A2,2,0,0,1,417.82,1254.62Z"/><ellipse class="cls-3" cx="351.69" cy="1240.1" rx="15.9" ry="17.69"/><path class="cls-2" d="M351.69,1259.8c-9.87,0-17.9-8.83-17.9-19.7s8-19.69,17.9-19.69,17.9,8.83,17.9,19.69S361.55,1259.8,351.69,1259.8Zm0-35.39c-7.66,0-13.9,7-13.9,15.69s6.23,15.7,13.9,15.7,13.9-7,13.9-15.7S359.35,1224.41,351.69,1224.41Z"/><path class="cls-3" d="M502.37,1291.93v14.49h-179s-0.58-7.56-1.14-20.27h94.51s6-42.1,56.23-31.94c4.53,4.12,9.3,8.14,14.32,11.94C496.91,1273.46,502.37,1282.52,502.37,1291.93Z"/><path class="cls-2" d="M502.37,1308.42h-179a2,2,0,0,1-2-1.85c0-.08-0.59-7.74-1.14-20.34a2,2,0,0,1,2-2.09h92.86c1-4.62,4.86-17.45,16.83-25.9,10.52-7.42,24.47-9.44,41.45-6a2,2,0,0,1,.95.48c4.67,4.25,9.44,8.23,14.18,11.83,10.25,7.78,15.89,17.5,15.89,27.38v14.49A2,2,0,0,1,502.37,1308.42Zm-177.17-4H500.37v-12.49c0-8.6-5.08-17.19-14.31-24.19-4.7-3.56-9.42-7.49-14-11.68-15.61-3.06-28.33-1.23-37.81,5.46-13.12,9.25-15.48,24.76-15.51,24.91a2,2,0,0,1-2,1.72H324.3C324.66,1296,325,1301.68,325.21,1304.42Z"/><path class="cls-1" d="M526.94,602.5V714s-25.79,207.62-29.79,226.29-93.48,211.38-93.48,211.38l-82.67-30,68.67-191.33S369,711,369.67,655s6-132.67,59.33-132S518.22,545.33,526.94,602.5Z"/><path class="cls-2" d="M526.94,716a2,2,0,0,1-2-2V619.67a2,2,0,0,1,4,0V714A2,2,0,0,1,526.94,716Z"/><ellipse class="cls-3" cx="457.47" cy="933.75" rx="43.25" ry="31.5" transform="translate(-561.89 1138.87) rotate(-75.28)"/><path class="cls-2" d="M352.12,1109.94a2,2,0,0,1-1.88-2.68L415,928.71,396.34,620.45a2,2,0,0,1,0-.26c0.08-1.21,2.13-29.93,11.19-48.73a2,2,0,1,1,3.6,1.74c-8.44,17.5-10.64,45.06-10.8,47.14L419,928.88a2,2,0,0,1-.12.8L354,1108.62A2,2,0,0,1,352.12,1109.94Z"/><path class="cls-2" d="M399.24,637.32a2,2,0,0,1-.66-3.89l10-3.46a19.16,19.16,0,0,0,12.35-13.89L427,588.24a2,2,0,1,1,3.91.86l-6.13,27.84a23.19,23.19,0,0,1-14.95,16.81l-10,3.46A2,2,0,0,1,399.24,637.32Z"/><path class="cls-2" d="M403.33,1128a2,2,0,0,1-.67-0.12l-63.33-22.33a2,2,0,1,1,1.33-3.77L404,1124.11A2,2,0,0,1,403.33,1128Z"/><path class="cls-3" d="M784,368.25l8.22-41.88A24.44,24.44,0,0,1,803.81,310l59.48-35a5.93,5.93,0,0,1,7.85,1.7h0a5.93,5.93,0,0,1-1.12,8l-30.69,24.85,8.25,12.92a28.62,28.62,0,0,1,.59,29.85L842,362.92l-30,21Z"/><path class="cls-2" d="M812,385.92a2,2,0,0,1-1-.25L783,370a2,2,0,0,1-1-2.13L790.25,326a26.45,26.45,0,0,1,12.54-17.7l59.48-35a7.93,7.93,0,0,1,9,13L842,310l7.29,11.42a30.5,30.5,0,0,1,.63,31.93l-6.17,10.56a2,2,0,0,1-.58.63l-30,21A2,2,0,0,1,812,385.92Zm-25.76-18.7,25.64,14.35,28.61-20,6-10.19a26.52,26.52,0,0,0-.55-27.76l-8.25-12.92a2,2,0,0,1,.43-2.63l30.69-24.85a3.93,3.93,0,0,0-4.46-6.44l-59.48,35a22.46,22.46,0,0,0-10.64,15Z"/><path class="cls-3" d="M831.63,312.85L819.27,327a10.73,10.73,0,0,0,.77,14.89l19.53,18.2a10.73,10.73,0,0,0,15-.32l12.18-12.36a10.73,10.73,0,0,0,.07-15l-19.35-20A10.73,10.73,0,0,0,831.63,312.85Z"/><path class="cls-2" d="M846.89,365a12.69,12.69,0,0,1-8.68-3.44l-19.53-18.2a12.67,12.67,0,0,1-.92-17.67l12.36-14.18a12.73,12.73,0,0,1,18.74-.48l19.35,20a12.65,12.65,0,0,1-.08,17.78L855.95,361.2A12.69,12.69,0,0,1,846.89,365Zm-7.16-53.85h-0.24a8.63,8.63,0,0,0-6.35,3h0l-12.36,14.18a8.69,8.69,0,0,0,.63,12.12l19.53,18.2a8.68,8.68,0,0,0,12.16-.26L865.28,346a8.67,8.67,0,0,0,.06-12.19l-19.35-20A8.63,8.63,0,0,0,839.72,311.17Zm-8.09,1.68h0Z"/><path class="cls-3" d="M784.75,364.5l5.7-47.4a8.75,8.75,0,0,1,4.67-6.73L807.52,304a8.75,8.75,0,0,1,9.71,1.12l15.83,13.55a6.23,6.23,0,0,1-.14,9.58h0a6.23,6.23,0,0,1-6.77.68l-10.89-5.64,3.65,26.95a6.23,6.23,0,0,1-1.21,4.6l-17.44,22.95Z"/><path class="cls-2" d="M800.25,379.75a2,2,0,0,1-1.3-.48L783.45,366a2,2,0,0,1-.69-1.76l5.7-47.4a10.74,10.74,0,0,1,5.73-8.26l12.41-6.42a10.71,10.71,0,0,1,11.93,1.38l15.83,13.55a8.23,8.23,0,0,1-9.13,13.56l-7.48-3.87,3.14,23.13a8.17,8.17,0,0,1-1.6,6.08L801.84,379a2,2,0,0,1-1.38.78h-0.21Zm-13.39-16.07,13.08,11.18,16.16-21.26a4.2,4.2,0,0,0,.82-3.12l-3.65-26.95a2,2,0,0,1,2.9-2l10.89,5.64a4.23,4.23,0,0,0,4.69-7L815.92,306.6a6.72,6.72,0,0,0-7.49-.87L796,312.15a6.74,6.74,0,0,0-3.6,5.19Z"/><path class="cls-4" d="M827.67,383S801,464.56,771.11,510c-13.18,20-27,33.06-39.44,29-10-3.26-21.54-11.67-33.72-23.25-37.6-35.75-80.82-101.66-99-139.42-24-50,36-119.33,70.67-85.33,27.59,27.07,72,128.67,72,128.67l38-62.67Z"/><line class="cls-3" x1="780.33" y1="374.67" x2="813" y2="391.67"/><path class="cls-2" d="M813,393.67a2,2,0,0,1-.92-0.23l-32.67-17a2,2,0,0,1,1.85-3.55l32.67,17A2,2,0,0,1,813,393.67Z"/><line class="cls-3" x1="741.67" y1="429.67" x2="740" y2="481.5"/><path class="cls-2" d="M740,483.5h-0.07a2,2,0,0,1-1.93-2.06l1.67-51.83a2,2,0,1,1,4,.13L742,481.56A2,2,0,0,1,740,483.5Z"/><path class="cls-3" d="M771.11,510c-13.18,20-27,33.06-39.44,29-10-3.26-21.54-11.67-33.72-23.25A44.52,44.52,0,0,1,771.11,510Z"/><path class="cls-4" d="M665,373c-15.33,44-52.67,138-26.67,234.67,0,0-38,25.33-104.66,25.33-39.14,0-83.71-4.48-118.52-14.52C413,599.7,408.1,569,399.24,569c-8.65,0-9.54,24.56-9.22,40.4-12.62-5.74-22.55-12.62-28.52-20.73,0,0-.67-193,82-326,0,0,89.5-23,151.5-17.62,0,0,38.67,13.33,74.67,46C669.67,291,680.33,329,665,373Z"/><path class="cls-2" d="M645.17,435a2,2,0,0,1-1.93-2.54c5.66-20.06,11.82-37.42,16.76-51.36,1.11-3.12,2.15-6.06,3.1-8.81a151.34,151.34,0,0,0,6.47-71.62,2,2,0,0,1,4-.61,155.42,155.42,0,0,1-6.65,73.55q-1.44,4.13-3.11,8.83c-4.92,13.89-11,31.17-16.68,51.11A2,2,0,0,1,645.17,435Z"/><path class="cls-2" d="M524,613.5c-11.11,0-21.58-.43-31-1.07a498.08,498.08,0,0,1-69.53-9.48,2,2,0,1,1,.89-3.9c1.17,0.27,118.07,26.48,199.44-5.41a2,2,0,1,1,1.46,3.72C593.27,609.92,556,613.5,524,613.5Z"/><path class="cls-3" d="M533.9,252.45c0.47,23.38,21.6,43.8,36,50.53,8.35-13.14,25.47-31,25.47-31,3.49,14.12,1.82,30.23.18,37.22C615,300.41,620.3,286.7,620.3,286.7c6.9-26-6.78-53.19-25.26-60C554.2,211.72,533.9,252.45,533.9,252.45Z"/><path class="cls-2" d="M595.57,311.17a2,2,0,0,1-1.95-2.46,90.08,90.08,0,0,0,.61-32.6c-5.09,5.52-16.4,18.16-22.62,27.94a2,2,0,0,1-2.53.74c-15.14-7.06-36.69-28-37.18-52.3a2,2,0,0,1,.21-0.93c0.21-.42,21.58-42.15,63.61-26.71,18.56,6.82,34,34.11,26.5,62.37a2,2,0,0,1-.07.21C621.93,288,616.34,302,596.4,311A2,2,0,0,1,595.57,311.17Zm-0.18-41.22a2,2,0,0,1,1.94,1.52c3.1,12.54,2.23,26.14,1,34.15,14.88-7.89,19.66-18.49,20.1-19.55,6.68-25.39-7.16-51.27-24-57.47-16.18-5.94-30.93-3.65-43.83,6.83a62.35,62.35,0,0,0-14.61,17.49c0.72,21.35,19.68,40.4,33.31,47.48,8.62-12.95,24.05-29.13,24.73-29.84A2,2,0,0,1,595.4,269.94Z"/><path class="cls-3" d="M591.68,167.35l-9.41,25-16.1,42.82C576.38,251,589.81,257.64,607.26,253l6-20.48,9.15-31Z"/><path class="cls-2" d="M596.89,256.46c-12.84,0-23.7-6.75-32.39-20.16a2,2,0,0,1-.19-1.79l25.5-67.86a2,2,0,0,1,3.36-.63l30.77,34.19a2,2,0,0,1,.43,1.9L609.18,253.6a2,2,0,0,1-1.41,1.37A42.59,42.59,0,0,1,596.89,256.46ZM568.41,235c9.82,14.67,22,20.05,37.26,16.41l14.55-49.32-27.82-30.91Z"/><path class="cls-3" d="M318.41,686.82q-2.8-6.62-6.07-13.43a368.52,368.52,0,0,0-27.87-47.92,368.53,368.53,0,0,0-34.54-43.36q-5.15-5.52-10.32-10.53l-44.48-65-41.19,28.16c-5.6,3.83-9.19,10.09-10.91,18.26-6.2,29.36,11.9,83.28,48.15,136.3s79.93,89.45,109.55,94.32c8.24,1.36,15.38.28,21-3.55l41.19-28.16Z"/><path class="cls-2" d="M307.26,786.14a42.21,42.21,0,0,1-6.87-.59c-30.86-5.08-75.42-43.32-110.87-95.16S134.6,583.15,141.06,552.54c1.87-8.89,5.82-15.45,11.74-19.5L194,504.88a2,2,0,0,1,2.78.52l44.37,64.88c3.44,3.35,6.88,6.87,10.24,10.46a369.78,369.78,0,0,1,34.73,43.59,369.8,369.8,0,0,1,28,48.18c2.13,4.43,4.16,8.91,6,13.34l44.37,64.88a2,2,0,0,1-.52,2.78l-41.19,28.16A27,27,0,0,1,307.26,786.14ZM194.6,509.31l-39.54,27c-5,3.45-8.43,9.17-10.09,17-6.26,29.6,13,83.76,47.85,134.76S271.19,776.69,301,781.6c7.91,1.31,14.48.22,19.52-3.22l39.54-27-43.35-63.4a2,2,0,0,1-.19-0.35c-1.87-4.42-3.9-8.91-6-13.34a365.82,365.82,0,0,0-27.72-47.66,365.83,365.83,0,0,0-34.35-43.12c-3.36-3.6-6.81-7.12-10.25-10.46a2,2,0,0,1-.26-0.31Z"/><path class="cls-3" d="M362.89,751.87c-5.6,3.83-12.74,4.91-21,3.55-29.61-4.87-73.29-41.3-109.55-94.32S178,554.16,184.21,524.79c1.72-8.17,5.32-14.44,10.91-18.26s12.74-4.91,21-3.55c0.47,0.08.94,0.16,1.43,0.26,20.43,4,47.21,22.45,73.58,50.71a368.52,368.52,0,0,1,34.54,43.36,368.52,368.52,0,0,1,27.87,47.92c16.76,34.82,24.26,66.48,20.56,87-0.08.49-.18,1-0.28,1.42C372.08,741.78,368.48,748,362.89,751.87Z"/><path class="cls-2" d="M348.45,758a42.17,42.17,0,0,1-6.86-.59c-30.86-5.08-75.42-43.32-110.87-95.17S175.78,555,182.25,524.38c1.87-8.89,5.82-15.45,11.74-19.5s13.47-5.35,22.43-3.87c0.5,0.08,1,.17,1.51.27,20.77,4,48,22.75,74.63,51.3a369.73,369.73,0,0,1,34.73,43.59,369.74,369.74,0,0,1,28,48.18c16.94,35.19,24.5,67.33,20.73,88.18-0.08.48-.18,1-0.28,1.45-1.88,8.92-5.83,15.49-11.75,19.53A27,27,0,0,1,348.45,758ZM209.58,504.42a23.1,23.1,0,0,0-13.33,3.76c-5,3.45-8.43,9.17-10.09,17C179.91,554.81,199.14,609,234,660s78.37,88.57,108.22,93.48c7.91,1.31,14.48.22,19.52-3.22h0c5-3.45,8.43-9.17,10.09-17,0.1-.46.19-0.89,0.26-1.34,3.63-20.07-3.81-51.32-20.39-85.77A365.75,365.75,0,0,0,324,598.43a365.87,365.87,0,0,0-34.35-43.12c-26.09-28-52.51-46.21-72.5-50.11-0.49-.1-0.93-0.17-1.37-0.25A38,38,0,0,0,209.58,504.42Z"/><path class="cls-3" d="M358.07,647.43q-2.39-5.66-5.19-11.49a315.09,315.09,0,0,0-23.83-41,315.1,315.1,0,0,0-29.53-37.07q-4.41-4.72-8.82-9l-38-55.62-35.21,24.08c-4.78,3.27-7.86,8.63-9.33,15.61-5.31,25.11,10.17,71.21,41.17,116.54S317.64,726,343,730.16c7,1.16,13.15.24,17.94-3L396.11,703Z"/><path class="cls-2" d="M348.55,732.65a36.38,36.38,0,0,1-5.92-.51c-26.46-4.35-64.64-37.1-95-81.49s-47-91.84-41.48-118.08c1.62-7.68,5-13.35,10.16-16.85l35.21-24.08a2,2,0,0,1,2.78.52l37.92,55.45c2.94,2.86,5.88,5.87,8.74,8.94a316.47,316.47,0,0,1,29.72,37.31,316.51,316.51,0,0,1,24,41.23c1.82,3.78,3.56,7.61,5.15,11.39l37.92,55.45a2,2,0,0,1-.52,2.78L362,728.78A23.34,23.34,0,0,1,348.55,732.65ZM252.14,496.06l-33.56,23c-4.25,2.9-7.11,7.74-8.5,14.38-5.33,25.24,11.09,71.45,40.87,115s66.89,75.61,92.34,79.8c6.69,1.11,12.24.19,16.48-2.71l33.56-23-36.9-54a2,2,0,0,1-.19-0.35c-1.6-3.77-3.33-7.61-5.15-11.4A312.52,312.52,0,0,0,327.4,596.1a312.42,312.42,0,0,0-29.35-36.83c-2.87-3.07-5.81-6.08-8.75-8.94A2,2,0,0,1,289,550Z"/><path class="cls-3" d="M396.11,703c-4.78,3.27-10.89,4.2-17.94,3-25.32-4.16-62.67-35.31-93.67-80.65S238,534,243.33,508.9c1.47-7,4.55-12.34,9.33-15.61s10.89-4.2,17.94-3c0.4,0.07.8,0.13,1.22,0.22,17.47,3.4,40.37,19.2,62.91,43.35a325.08,325.08,0,0,1,53.37,78c14.33,29.77,20.74,56.84,17.58,74.35-0.07.42-.15,0.82-0.24,1.22C404,694.42,400.89,699.78,396.11,703Z"/><path class="cls-2" d="M383.76,708.57a36.38,36.38,0,0,1-5.92-.51c-26.46-4.35-64.64-37.1-95-81.49s-47-91.84-41.48-118.08c1.62-7.68,5-13.35,10.16-16.85s11.65-4.63,19.39-3.35c0.43,0.07.86,0.14,1.3,0.24,17.81,3.47,41.14,19.49,64,43.95A327.08,327.08,0,0,1,389.9,611c14.51,30.14,21,57.69,17.75,75.58-0.07.42-.16,0.85-0.25,1.27-1.62,7.68-5,13.35-10.16,16.85h0A23.34,23.34,0,0,1,383.76,708.57ZM265,491.77a19.47,19.47,0,0,0-11.23,3.16c-4.25,2.9-7.11,7.74-8.5,14.38-5.33,25.24,11.09,71.45,40.87,115s66.89,75.61,92.34,79.8c6.69,1.11,12.24.19,16.48-2.71h0c4.25-2.9,7.11-7.74,8.5-14.38,0.08-.37.16-0.74,0.22-1.13,3.09-17.1-3.26-43.76-17.41-73.16a323.08,323.08,0,0,0-53-77.54c-22.26-23.85-44.8-39.44-61.83-42.76-0.41-.09-0.79-0.15-1.16-0.21A32.26,32.26,0,0,0,265,491.77ZM396.11,703h0Z"/><path class="cls-3" d="M384.76,680.54L595.87,498.6c2.68-1.83,4.4-4.82,5.22-8.73,0-.22.09-0.45,0.13-0.68,1.77-9.79-1.82-24.93-9.83-41.58A181.78,181.78,0,0,0,561.55,404c-12.61-13.51-25.41-22.34-35.18-24.24l-0.68-.12c-3.94-.65-7.35-0.13-10,1.7L269.52,512a15.29,15.29,0,0,0-3,1.58c-3.86,2.64-6.34,7-7.52,12.59-4.28,20.24,8.2,57.42,33.2,94s55.11,61.67,75.52,65c5.68,0.94,10.6.19,14.46-2.44A15.29,15.29,0,0,0,384.76,680.54Z"/><path class="cls-2" d="M372.26,687.57a29.67,29.67,0,0,1-4.84-.42c-21.43-3.53-52.32-30-76.85-65.87s-38-74.26-33.5-95.51c1.32-6.29,4.13-10.94,8.35-13.83a17.33,17.33,0,0,1,3.25-1.74L514.62,379.58c3-2,6.88-2.7,11.39-2l0.77,0.14c10.13,2,23.34,11,36.23,24.84a183.76,183.76,0,0,1,30.18,44.14c8.19,17,11.84,32.62,10,42.8,0,0.22-.09.46-0.14,0.7-0.95,4.51-3,7.84-6,9.94L386.14,682a17.32,17.32,0,0,1-2.8,2.4A19.2,19.2,0,0,1,372.26,687.57ZM522.57,381.33a10,10,0,0,0-5.79,1.62l-0.19.12L270.46,513.79l-0.2.09a13.36,13.36,0,0,0-2.58,1.37c-3.34,2.28-5.59,6.1-6.7,11.35-4.28,20.25,8.94,57.4,32.89,92.43s53.77,60.82,74.2,64.18c5.29,0.88,9.67.16,13-2.12a13.37,13.37,0,0,0,2.21-1.91l0.16-.15L594.56,497.08l0.18-.14c2.18-1.49,3.66-4,4.39-7.49,0-.21.08-0.4,0.12-0.6,1.7-9.4-1.82-24.1-9.66-40.38a179.74,179.74,0,0,0-29.5-43.14c-12.33-13.21-24.75-21.82-34.1-23.65l-0.63-.11A17.13,17.13,0,0,0,522.57,381.33Z"/><path class="cls-3" d="M660.94,500.11c-4.11,2.81-9.35,3.6-15.39,2.6-21.73-3.58-53.78-30.31-80.38-69.21S525.3,355,529.84,333.5c1.27-6,3.9-10.59,8-13.39s9.35-3.6,15.39-2.6C569.3,320.14,591,335.44,612,359a281.24,281.24,0,0,1,39.66,58c14.3,28.07,20.69,53.84,17.32,69.77C667.69,492.7,665.05,497.3,660.94,500.11Z"/><path class="cls-2" d="M650.34,505.13a31.54,31.54,0,0,1-5.11-.44c-22.79-3.75-55.62-31.91-81.7-70.05s-40.41-79-35.64-101.55c1.41-6.66,4.38-11.59,8.84-14.63s10.12-4,16.84-2.93c16.65,2.74,38.48,18.08,59.9,42.1A283.23,283.23,0,0,1,653.41,416c14.61,28.67,21,54.58,17.5,71.09-1.41,6.66-4.38,11.59-8.84,14.63A20.32,20.32,0,0,1,650.34,505.13Zm-101.87-186a16.45,16.45,0,0,0-9.49,2.67c-3.58,2.45-6,6.54-7.18,12.16-4.56,21.59,9.52,61.16,35,98.46s57.28,64.77,79.05,68.36c5.67,0.93,10.36.16,13.93-2.28s6-6.54,7.18-12.16c3.25-15.4-3.16-41-17.15-68.44a279.2,279.2,0,0,0-39.37-57.57c-20.51-23-42-38.25-57.56-40.81A27.45,27.45,0,0,0,548.47,319.09Z"/><path class="cls-3" d="M637.77,466.22c-2.56,1.75-5.83,2.25-9.6,1.62-13.55-2.23-33.53-18.89-50.11-43.15s-24.87-48.92-22-62.35c0.79-3.74,2.43-6.6,5-8.35s5.83-2.25,9.6-1.62l0.65,0.12c9.35,1.82,21.6,10.27,33.66,23.19a173.92,173.92,0,0,1,28.55,41.75c7.67,15.93,11.1,30.41,9.41,39.78,0,0.22-.08.44-0.13,0.65C642,461.61,640.33,464.47,637.77,466.22Z"/><path class="cls-2" d="M631.17,470.1a20.39,20.39,0,0,1-3.32-.29c-14.62-2.4-34.81-19.67-51.44-44s-25.4-49.4-22.33-63.89c0.92-4.35,2.87-7.58,5.82-9.59s6.66-2.67,11.05-1.94l0.73,0.13c9.71,1.89,22.37,10.56,34.71,23.79a175.9,175.9,0,0,1,28.89,42.25c7.85,16.3,11.33,31.24,9.57,41,0,0.22-.09.47-0.14,0.71-0.92,4.35-2.87,7.58-5.82,9.59h0A13.38,13.38,0,0,1,631.17,470.1Zm-63.53-116a9.52,9.52,0,0,0-5.49,1.53c-2.07,1.41-3.47,3.81-4.16,7.11-2.8,13.27,5.93,37.71,21.72,60.81s35.4,40.1,48.78,42.3c3.34,0.55,6.08.11,8.14-1.3h0c2.07-1.41,3.47-3.81,4.16-7.11,0-.19.08-0.37,0.11-0.57,1.62-9-1.75-23-9.23-38.58a171.9,171.9,0,0,0-28.21-41.25c-11.78-12.62-23.65-20.86-32.58-22.6l-0.6-.11A16.29,16.29,0,0,0,567.65,354.12Z"/><polygon class="cls-3" points="585.71 295.36 553.27 317.54 575.29 349.75 588.31 340.84 603.68 330.33 585.71 295.36"/><path class="cls-2" d="M575.29,351.75a2,2,0,0,1-1.65-.87l-22-32.21a2,2,0,0,1,.52-2.78l32.44-22.18a2,2,0,0,1,2.91.74l18,35a2,2,0,0,1-.65,2.56L576.42,351.4A2,2,0,0,1,575.29,351.75ZM556,318.06L575.81,347l25.28-17.29L585,298.29Z"/><path class="cls-3" d="M637.33,353.53l-32.4,22.16c-12.06-12.92-24.31-21.37-33.66-23.19l32.4-22.15C613,332.17,625.28,340.61,637.33,353.53Z"/><path class="cls-2" d="M604.93,377.69a2,2,0,0,1-1.46-.64c-11.78-12.62-23.65-20.86-32.58-22.6a2,2,0,0,1-.75-3.61l32.4-22.15a2,2,0,0,1,1.51-.31c9.75,1.91,22.41,10.58,34.74,23.79a2,2,0,0,1-.33,3l-32.4,22.16A2,2,0,0,1,604.93,377.69Zm-29-26c8.68,3.11,19.05,10.65,29.28,21.34l29.05-19.87c-10.89-11.29-21.75-18.75-30.18-20.73Z"/><path class="cls-3" d="M603.67,330.34h0l-18-35C601.61,298,623,313,643.76,336.12l-6.43,17.41C625.28,340.61,613,332.17,603.67,330.34Z"/><path class="cls-2" d="M637.33,355.53a2,2,0,0,1-1.46-.64c-11.77-12.61-23.64-20.84-32.59-22.59a2,2,0,0,1-1.46-1.19l-17.9-34.84a2,2,0,0,1,2.11-2.89c16.46,2.74,38,17.83,59.22,41.4a2,2,0,0,1,.39,2l-6.43,17.41a2,2,0,0,1-1.48,1.27A2,2,0,0,1,637.33,355.53ZM605,328.59c9,2.13,20.33,9.77,31.54,21.24l4.9-13.27c-18.29-20.15-37.32-34.11-52-38.3Z"/><polygon class="cls-3" points="597.72 380.62 565.32 402.78 546.75 402.45 579.16 380.3 597.72 380.62"/><path class="cls-2" d="M565.31,404.78h0l-18.56-.32a2,2,0,0,1-1.09-3.65L578,378.65a1.83,1.83,0,0,1,1.16-.35l18.56,0.33a2,2,0,0,1,1.09,3.65l-32.4,22.16A2,2,0,0,1,565.31,404.78Zm-12.25-4.21,11.65,0.2,26.7-18.25-11.65-.2Z"/><polygon class="cls-3" points="701.37 464.5 668.93 486.68 646.9 454.47 659.92 445.57 675.29 435.06 701.37 464.5"/><path class="cls-2" d="M668.93,488.68a2,2,0,0,1-1.65-.87l-22-32.21a2,2,0,0,1,.52-2.78l28.39-19.41a2,2,0,0,1,2.63.32l26.08,29.44a2,2,0,0,1-.37,3l-32.44,22.18A2,2,0,0,1,668.93,488.68ZM649.68,455l19.77,28.9,28.92-19.77L675,437.71Z"/><path class="cls-3" d="M665.89,395.28l-32.4,22.16c7.67,15.93,11.1,30.41,9.41,39.78l32.4-22.15C677,425.68,673.55,411.2,665.89,395.28Z"/><path class="cls-2" d="M642.89,459.22a2,2,0,0,1-2-2.36c1.62-8.95-1.75-23-9.24-38.56a2,2,0,0,1,.67-2.52l32.4-22.16a2,2,0,0,1,2.93.78c7.84,16.28,11.32,31.23,9.57,41a2,2,0,0,1-.84,1.3L644,458.87A2,2,0,0,1,642.89,459.22ZM636,418.12c6.26,13.41,9.52,25.81,9.27,35l28.15-19.25c1.22-8.57-1.8-21.4-8.37-35.64Z"/><path class="cls-3" d="M675.28,435.06h0l26.08,29.44c3.3-15.78-2.93-41.18-16.92-68.89l-18.56-.33C673.55,411.2,677,425.68,675.28,435.06Z"/><path class="cls-2" d="M701.37,466.5a2,2,0,0,1-1.5-.67l-26-29.34a2,2,0,0,1-.56-1.77c1.61-9-1.75-23-9.23-38.56a2,2,0,0,1,.12-1.95,2,2,0,0,1,1.72-.92l18.56,0.32a2,2,0,0,1,1.75,1.1c14.28,28.27,20.51,53.86,17.1,70.2A2,2,0,0,1,701.37,466.5Zm-24-32.06L700,460c1.43-15.23-4.68-38-16.82-62.37l-14.15-.25C675.68,411.94,678.69,425.26,677.41,434.44Z"/><polygon class="cls-3" points="626.26 422.37 593.87 444.53 587.43 461.94 619.84 439.79 626.26 422.37"/><path class="cls-2" d="M587.43,463.94a2,2,0,0,1-1.88-2.69L592,443.84a2,2,0,0,1,.75-1l32.4-22.16a2,2,0,0,1,3,2.34l-6.43,17.41a2,2,0,0,1-.75,1l-32.4,22.16A2,2,0,0,1,587.43,463.94Zm8.09-18.12-4,10.93,26.7-18.26,4-10.93Z"/><path class="cls-3" d="M660.94,500.11l-38.12,26.07c-18.9,12.92-61.77-16.9-95.76-66.6s-46.23-100.48-27.33-113.4l38.12-26.07c-4.11,2.81-6.74,7.41-8,13.39a1,1,0,0,0,0,.12l0-.08,32.36-22.13,16.92,68.89-32.4,22.16a280.93,280.93,0,0,0,40.68,59.49l32.4-22.16,58.06,40.76-32.36,22.13-0.09,0,0.12,0C651.59,503.71,656.84,502.92,660.94,500.11Z"/><path class="cls-2" d="M612.18,531.2c-22.47,0-57.45-27.62-86.77-70.5-35.14-51.39-46.92-102.43-26.8-116.18l38.11-26.06h0a2,2,0,0,1,2.26,3.3h0a16,16,0,0,0-5.51,6.9l27.64-18.9a2,2,0,0,1,3.07,1.17l16.92,68.89a2,2,0,0,1-.81,2.13l-31,21.16a279.7,279.7,0,0,0,38.42,56.19l31-21.16a2,2,0,0,1,2.28,0L679,478.91a2,2,0,0,1,0,3.29L651.37,501.1a16,16,0,0,0,8.43-2.64h0a2,2,0,1,1,2.26,3.3L624,527.83A20.43,20.43,0,0,1,612.18,531.2ZM529.23,328.42l-28.37,19.4c-8.29,5.67-10.24,20.53-5.36,40.79,5.11,21.19,16.9,46,33.2,69.83s35.14,43.83,53,56.27c17.11,11.9,31.67,15.47,40,9.81l28.37-19.4a31.81,31.81,0,0,1-4.83-.44,2.68,2.68,0,0,1-.37-0.08,2,2,0,0,1-.2-3.76l29.72-20.33-54.56-38.31-31.26,21.37a2,2,0,0,1-2.62-.31,283,283,0,0,1-41-59.92,2,2,0,0,1,.66-2.55l31.26-21.37L561,314.69,531.25,335a2,2,0,0,1-3.43-1.56,3.27,3.27,0,0,1,.06-0.36A31.8,31.8,0,0,1,529.23,328.42Zm116.2,174.27h0Z"/><path class="cls-3" d="M588.31,340.84l-26.08-29.44c-3.3,15.78,2.93,41.18,16.92,68.89l18.56,0.33C590.05,364.7,586.62,350.22,588.31,340.84Z"/><path class="cls-2" d="M597.71,382.62h0l-18.56-.33a2,2,0,0,1-1.75-1.1c-14.28-28.27-20.51-53.86-17.1-70.2a2,2,0,0,1,3.45-.92l26.08,29.44a2,2,0,0,1,.47,1.68c-1.61,9,1.76,23,9.24,38.56A2,2,0,0,1,597.71,382.62Zm-17.31-4.3,14.15,0.25c-6.63-14.62-9.64-27.94-8.36-37.1l-22.61-25.52C562.15,331.17,568.26,354,580.4,378.32Z"/><path class="cls-3" d="M626.27,422.37l-6.43,17.41c20.75,23.1,42.16,38.11,58.06,40.76l-18-35C650.57,443.74,638.32,435.29,626.27,422.37Z"/><path class="cls-2" d="M677.89,482.55l-0.33,0c-16.46-2.74-38-17.83-59.22-41.4a2,2,0,0,1-.39-2l6.43-17.41a2,2,0,0,1,3.34-.67c11.77,12.61,23.65,20.85,32.58,22.6a2,2,0,0,1,1.39,1l18,35A2,2,0,0,1,677.89,482.55Zm-55.76-43.2c18.29,20.15,37.32,34.11,52,38.3l-15.58-30.32c-9-2.13-20.33-9.77-31.54-21.25Z"/><path class="cls-3" d="M428.66,528h36.43a4.28,4.28,0,0,1,1.73.36l24,10.61a4.28,4.28,0,0,1,2.26,5.48h0a4.28,4.28,0,0,1-4.26,2.71l-21.13-1.36a3.19,3.19,0,0,0-3,1.69h0a3.19,3.19,0,0,0,2,4.58l37.1,10.31A6.27,6.27,0,0,1,508,570.6h0a6.27,6.27,0,0,1-7,4l-22.9-4.2,16.24,9.31a5.13,5.13,0,0,1,1.9,7l-10,17.37a5.13,5.13,0,0,1-5.74,2.41l-39.16-12.4a27.29,27.29,0,0,1-10.3-6l-31.27-28.95Z"/><path class="cls-2" d="M481.76,608.65a7.09,7.09,0,0,1-1.78-.23l-0.1,0L440.72,596a29.47,29.47,0,0,1-11.06-6.43l-31.27-28.95a2,2,0,0,1-.11-2.83l28.91-31.15a2,2,0,0,1,1.47-.64h36.43a6.24,6.24,0,0,1,2.54.53l24,10.61a6.28,6.28,0,0,1-2.94,12L467.6,547.8a1.21,1.21,0,0,0-1.13.63,1.19,1.19,0,0,0,.73,1.71l37.1,10.31a8.27,8.27,0,0,1-3.7,16.09l-11.42-2.09,6.11,3.51a7.14,7.14,0,0,1,2.64,9.74l-10,17.37A7.16,7.16,0,0,1,481.76,608.65ZM481,604.56a3.15,3.15,0,0,0,3.46-1.49l10-17.37a3.14,3.14,0,0,0-1.16-4.28l-16.24-9.31a2,2,0,0,1,1.36-3.7l22.9,4.2a4.27,4.27,0,0,0,1.91-8.31L466.13,554a5.19,5.19,0,0,1,1.73-10.19L489,545.17a2.28,2.28,0,0,0,1.07-4.37l-24-10.61a2.27,2.27,0,0,0-.92-0.19H429.53l-27,29,29.8,27.59a25.45,25.45,0,0,0,9.55,5.55Z"/><path class="cls-4" d="M501,331c-19.43,33.41-126.5,124.58-126.5,124.58l59,70.76L399.24,569S337,532.08,299.56,498.86c-11.14-9.88-20.07-19.44-24.51-27.6a9.74,9.74,0,0,1-.18-3.57c2-9.78,7.76-22.43,16-36.61,32.54-55.67,103.28-134.88,128.89-156.3C462.35,239.19,525.4,289,501,331Z"/><path class="cls-2" d="M384.56,448.9a2,2,0,0,1-1.31-3.51c23.21-20.18,100.16-88.12,116-115.4,6.45-11.1,6.86-23.73,1.16-35.58-7.31-15.19-23.27-26.67-40.67-29.24a2,2,0,1,1,.59-4C479,264,496.16,276.33,504,292.68c6.3,13.08,5.84,27-1.3,39.33-15.73,27-87,90.42-116.86,116.41A2,2,0,0,1,384.56,448.9Z"/><line class="cls-3" x1="374.5" y1="455.58" x2="334.67" y2="457.67"/><path class="cls-2" d="M334.66,459.67a2,2,0,0,1-.1-4l39.83-2.09a2,2,0,0,1,.21,4l-39.83,2.09h-0.11Z"/><path class="cls-3" d="M319.67,466.47a36.13,36.13,0,0,1-20.11,32.39c-11.14-9.88-20.07-19.44-24.51-27.6a9.74,9.74,0,0,1-.18-3.57c2-9.78,7.76-22.43,16-36.61A36.16,36.16,0,0,1,319.67,466.47Z"/><line class="cls-3" x1="390.61" y1="553.67" x2="418.59" y2="519.78"/><path class="cls-2" d="M390.6,555.67a2,2,0,0,1-1.54-3.27l28-33.88a2,2,0,0,1,3.08,2.55l-28,33.88A2,2,0,0,1,390.6,555.67Z"/><path class="cls-3" d="M661.27,197c-3.75,21.78-12,47.57-38,41.64-31-7.05-49.63-30.59-47.83-60.39s16.71-45.63,52.13-39.71a54.84,54.84,0,0,1,8.87,2.23c20.13,7,29.26,24.7,26.58,44.56C662.53,188.9,662,192.87,661.27,197Z"/><path class="cls-2" d="M630.48,241.48a34.47,34.47,0,0,1-7.65-.91c-12.55-2.86-23.58-8.55-31.9-16.45a2,2,0,1,1,2.75-2.9c7.8,7.41,18.18,12.75,30,15.45,7.28,1.66,13.28.82,18.36-2.57,10.9-7.27,15-24.86,17.21-37.46,0.72-4.08,1.25-8,1.74-11.6,2.67-19.84-7-36.08-25.25-42.4a2,2,0,1,1,1.31-3.78c20.16,7,30.85,24.88,27.91,46.72-0.49,3.67-1,7.6-1.76,11.75-2.3,13.32-6.76,32-18.94,40.11A24.4,24.4,0,0,1,630.48,241.48Z"/><path class="cls-2" d="M565.74,183.17A91.7,91.7,0,0,0,575,196.12l15.71,2.09,4.15-10.94s10,0.26,12.59-6.36a3.92,3.92,0,0,0,.16-0.46c0.68-2.18,3.43-11.91,3-27.36,0,0,23.33,12.32,36.34,14.62,4.68,0.83,10.31-.59,15.61-2.77,10.61-4.35,20.75-20.43,19.75-31.86l0-.22c-1.66-16.76-11.09-5.89-11.09-5.89s-1.53-13.51-9.82-15.05-14.47,10.4-14.47,10.4a131.87,131.87,0,0,0-48.78-5.47C565.52,119.51,572,142.32,572,142.32S547.71,148.28,565.74,183.17Z"/><path class="cls-3" d="M587.41,196.26c2.23-12.34-5.71-24.51-18-26.81a20.89,20.89,0,0,0-7.91,0c-15.7,3.08-14.17,39.24,23.72,39.15Z"/><path class="cls-2" d="M585,210.61c-22.38,0-33.63-12.57-34.86-25.06-0.89-9,3.69-16.64,10.89-18.05a23,23,0,0,1,8.66,0C583,170,591.83,183,589.38,196.62a2,2,0,1,1-3.94-.71c2.06-11.43-5.31-22.42-16.44-24.49a19,19,0,0,0-7.16,0c-5.13,1-8.36,6.78-7.68,13.74,1,9.9,9.65,21.45,30.87,21.45h0.15a2,2,0,0,1,0,4H585Z"/><polygon class="cls-1" points="1476.88 418.54 1435.34 355.02 1262.22 684.55 1303.77 748.07 1476.88 418.54"/><polygon class="cls-4" points="816.63 640.09 858.17 703.62 1303.77 748.07 1262.22 684.55 816.63 640.09"/><polygon class="cls-3" points="1435.34 355.02 1262.22 684.55 816.63 640.09 984.58 320.39 1435.34 355.02"/><path class="cls-2" d="M1262.23,686.55H1262l-445.6-44.46a2,2,0,0,1-1.57-2.92l168-319.7a2,2,0,0,1,1.92-1.06L1435.49,353a2,2,0,0,1,1.62,2.92L1264,685.48A2,2,0,0,1,1262.23,686.55ZM819.78,638.4l441.3,44,171.07-325.64L985.74,322.49Z"/><path class="cls-2" d="M935.28,639.42a2,2,0,0,1-1.77-2.93L1088,342.3a2,2,0,0,1,3.54,1.86L937.05,638.35A2,2,0,0,1,935.28,639.42Z"/><path class="cls-2" d="M1046.67,650.53a2,2,0,0,1-1.77-2.93l155.84-296.65a2,2,0,0,1,3.54,1.86L1048.44,649.46A2,2,0,0,1,1046.67,650.53Z"/><path class="cls-2" d="M1158.07,661.64a2,2,0,0,1-1.77-2.93l157.13-299.1a2,2,0,0,1,3.54,1.86l-157.13,299.1A2,2,0,0,1,1158.07,661.64Z"/><path class="cls-2" d="M1372.9,437.84h-0.17L962,403.93a2,2,0,1,1,.33-4l410.74,33.9A2,2,0,0,1,1372.9,437.84Z"/><path class="cls-2" d="M1329.68,520.13h-0.19L919.94,484a2,2,0,0,1,.35-4l409.53,36.17A2,2,0,0,1,1329.68,520.13Z"/><path class="cls-2" d="M1286.46,602.39h-0.19L877.89,564a2,2,0,0,1,.38-4l408.38,38.39A2,2,0,0,1,1286.46,602.39Z"/><path class="cls-4" d="M1274.28,525.66c-17.78-1.86-36.24,9.56-41.25,25.53s5.36,30.39,23.14,32.25,36.24-9.56,41.24-25.52S1292.06,527.52,1274.28,525.66Zm-12.8,40.82c-7.35-.77-11.62-6.74-9.56-13.32s9.69-11.32,17-10.55,11.62,6.74,9.55,13.33S1268.83,567.25,1261.48,566.48Z"/><polygon class="cls-1" points="1162.49 391.21 1138.83 402.73 1124.89 388.78 1104.38 398.76 1088.29 382.67 1108.8 372.69 1094.86 358.75 1118.52 347.24 1132.46 361.18 1152.97 351.2 1169.06 367.29 1148.55 377.27 1162.49 391.21"/><path class="cls-2" d="M1070.67,390.4a2,2,0,0,1-.49-3.94c3.7-.93,5.8-1.4,5.89-1.41a2,2,0,1,1,.86,3.91s-2.14.47-5.77,1.39A2,2,0,0,1,1070.67,390.4Z"/><path class="cls-2" d="M997.27,531.89a86.88,86.88,0,0,1-9.2-.48,2,2,0,0,1,.43-4,83.94,83.94,0,0,0,11.66.41,2,2,0,1,1,.13,4Q998.76,531.89,997.27,531.89Zm14.84-1.18a2,2,0,0,1-.3-4,111,111,0,0,0,11.49-2.43,2,2,0,0,1,1,3.87,115.09,115.09,0,0,1-11.9,2.52Zm-35.57-1.48a2,2,0,0,1-.53-0.07,68.07,68.07,0,0,1-11.54-4.27,2,2,0,0,1,1.73-3.61,64,64,0,0,0,10.86,4A2,2,0,0,1,976.54,529.23Zm58.66-4.62a2,2,0,0,1-.7-3.88l0.3-.11c3.48-1.29,7-2.64,10.86-4.12a2,2,0,0,1,1.44,3.73c-3.83,1.48-7.4,2.83-10.91,4.14l-0.3.11A2,2,0,0,1,1035.2,524.61Zm-80-5.75a2,2,0,0,1-1.21-.41,53.8,53.8,0,0,1-8.93-8.59,2,2,0,0,1,3.09-2.54,49.79,49.79,0,0,0,8.26,8A2,2,0,0,1,955.16,518.86ZM1057.52,516a2,2,0,0,1-.74-3.86q5.55-2.21,11.09-4.46a2,2,0,0,1,1.5,3.71q-5.55,2.25-11.11,4.46A2,2,0,0,1,1057.52,516Zm246.1-4.8a2,2,0,0,1-2-1.75,38.57,38.57,0,0,0-3.06-10.9,2,2,0,1,1,3.65-1.64,42.51,42.51,0,0,1,3.38,12,2,2,0,0,1-1.73,2.24ZM1079.7,507a2,2,0,0,1-.76-3.85l11.08-4.53a2,2,0,0,1,1.51,3.7l-11.08,4.53A2,2,0,0,1,1079.7,507Zm-139.48-6.54a2,2,0,0,1-1.82-1.17,45.58,45.58,0,0,1-3.61-11.92,2,2,0,1,1,4-.62A41.57,41.57,0,0,0,942,497.66,2,2,0,0,1,940.23,500.49Zm161.64-2.5a2,2,0,0,1-.75-3.85q5.58-2.25,11.12-4.44a2,2,0,0,1,1.47,3.72q-5.53,2.18-11.09,4.43A2,2,0,0,1,1101.86,498ZM1294,489.68a2,2,0,0,1-1.52-.7,47.88,47.88,0,0,0-8.47-7.7,2,2,0,0,1,2.33-3.25,51.93,51.93,0,0,1,9.17,8.34A2,2,0,0,1,1294,489.68Zm-169.88-.45a2,2,0,0,1-.71-3.87c3.88-1.48,7.66-2.89,11.24-4.19a2,2,0,0,1,1.37,3.76c-3.56,1.29-7.32,2.69-11.18,4.16A2,2,0,0,1,1124.12,489.23Zm22.49-8.14a2,2,0,0,1-.64-3.89c3.91-1.33,7.75-2.58,11.42-3.72a2,2,0,0,1,1.19,3.82c-3.64,1.13-7.45,2.37-11.32,3.68A2,2,0,0,1,1146.61,481.09Zm-210-3.91h-0.25a2,2,0,0,1-1.74-2.23,48.5,48.5,0,0,1,3.11-12,2,2,0,0,1,3.72,1.48,44.44,44.44,0,0,0-2.85,11.05A2,2,0,0,1,936.58,477.17Zm338.29-1.51a2,2,0,0,1-.85-0.19,86.86,86.86,0,0,0-10.88-4.21,2,2,0,0,1,1.2-3.82,90.86,90.86,0,0,1,11.39,4.41A2,2,0,0,1,1274.87,475.66ZM1169.47,474a2,2,0,0,1-.53-3.93c4-1.09,7.9-2.09,11.67-3a2,2,0,1,1,.9,3.9c-3.71.86-7.59,1.85-11.51,2.92A2,2,0,0,1,1169.47,474Zm23.3-5.37a2,2,0,0,1-.36-4c4.05-.74,8.07-1.35,11.93-1.83a2,2,0,1,1,.49,4c-3.79.46-7.72,1.07-11.7,1.79A2,2,0,0,1,1192.76,468.65Zm59.4-.29a2,2,0,0,1-.41,0c-2.43-.5-5-1-7.56-1.35-1.34-.2-2.71-0.39-4.06-0.55a2,2,0,1,1,.47-4c1.4,0.16,2.81.35,4.19,0.56,2.66,0.4,5.27.87,7.77,1.39A2,2,0,0,1,1252.17,468.37Zm-35.68-2.59a2,2,0,0,1-.11-4c2.82-.15,5.63-0.23,8.35-0.23,1.24,0,2.51,0,3.77,0a2,2,0,0,1-.1,4c-1.22,0-2.44,0-3.66,0-2.65,0-5.38.08-8.13,0.22h-0.11ZM945.21,455.12a2,2,0,0,1-1.65-3.13q0.4-.58.81-1.16a74.55,74.55,0,0,1,7-8.31,2,2,0,1,1,2.87,2.79,70.64,70.64,0,0,0-6.64,7.86l-0.76,1.08A2,2,0,0,1,945.21,455.12Zm16.48-17.22a2,2,0,0,1-1.26-3.56c3-2.41,6.28-4.83,9.79-7.18a2,2,0,0,1,2.23,3.32c-3.41,2.29-6.61,4.63-9.5,7A2,2,0,0,1,961.69,437.89Zm19.81-13.38a2,2,0,0,1-1-3.73c3.35-1.93,6.92-3.86,10.62-5.74a2,2,0,1,1,1.81,3.57c-3.64,1.84-7.15,3.74-10.43,5.63A2,2,0,0,1,981.5,424.51Zm21.33-10.85a2,2,0,0,1-.83-3.82c3.55-1.61,7.27-3.21,11.06-4.75a2,2,0,1,1,1.51,3.7c-3.74,1.53-7.42,3.11-10.92,4.7A2,2,0,0,1,1002.83,413.66Zm22.14-9.07a2,2,0,0,1-.7-3.87c3.67-1.37,7.49-2.72,11.33-4a2,2,0,0,1,1.29,3.79c-3.81,1.29-7.59,2.63-11.22,4A2,2,0,0,1,1025,404.59Zm22.67-7.7A2,2,0,0,1,1047,393c3.82-1.18,7.7-2.33,11.53-3.41a2,2,0,0,1,1.09,3.85c-3.8,1.07-7.65,2.21-11.43,3.38A2,2,0,0,1,1047.64,396.89Z"/><path class="cls-2" d="M1302,529a2,2,0,0,1-1.89-2.65,33.1,33.1,0,0,0,1.35-5.48,2,2,0,1,1,3.95.64,37.1,37.1,0,0,1-1.52,6.15A2,2,0,0,1,1302,529Z"/><path class="cls-1" d="M945.91,873.25A25.79,25.79,0,0,0,920.11,899a25.78,25.78,0,0,0-25.79-25.79,25.79,25.79,0,0,0,25.79-25.8A25.8,25.8,0,0,0,945.91,873.25Z"/><path class="cls-4" d="M237.63,860.6a16.11,16.11,0,0,0-16.12,16.11A16.11,16.11,0,0,0,205.4,860.6a16.11,16.11,0,0,0,16.11-16.12A16.12,16.12,0,0,0,237.63,860.6Z"/><path class="cls-4" d="M850.55,155a22.88,22.88,0,0,0-22.88,22.87A22.87,22.87,0,0,0,804.79,155a22.88,22.88,0,0,0,22.87-22.88A22.89,22.89,0,0,0,850.55,155Z"/><circle class="cls-1" cx="274.77" cy="307.64" r="12.6"/></svg>